<mxfile host="Electron" agent="Mozilla/5.0 (Windows NT 10.0; Win64; x64) AppleWebKit/537.36 (KHTML, like Gecko) draw.io/24.7.17 Chrome/128.0.6613.36 Electron/32.0.1 Safari/537.36" version="24.7.17">
  <diagram name="PÃ¡gina-1" id="f-yIA7t4FL6gCtNKFIxE">
    <mxGraphModel dx="3474" dy="1730" grid="1" gridSize="10" guides="1" tooltips="1" connect="1" arrows="1" fold="1" page="1" pageScale="1" pageWidth="827" pageHeight="1169" math="0" shadow="0">
      <root>
        <mxCell id="0" />
        <mxCell id="1" parent="0" />
        <mxCell id="Ar_trDRfibadxC2Y5-E4-16" style="edgeStyle=orthogonalEdgeStyle;rounded=0;orthogonalLoop=1;jettySize=auto;html=1;exitX=1;exitY=0.5;exitDx=0;exitDy=0;" edge="1" parent="1" target="Ar_trDRfibadxC2Y5-E4-34">
          <mxGeometry relative="1" as="geometry">
            <mxPoint x="195" y="425.47058823529414" as="targetPoint" />
            <mxPoint x="40" y="425" as="sourcePoint" />
          </mxGeometry>
        </mxCell>
        <mxCell id="Ar_trDRfibadxC2Y5-E4-8" value="" style="ellipse;whiteSpace=wrap;html=1;aspect=fixed;" vertex="1" parent="1">
          <mxGeometry x="15" y="390" width="70" height="70" as="geometry" />
        </mxCell>
        <mxCell id="Ar_trDRfibadxC2Y5-E4-13" value="Llega un tronco" style="text;html=1;align=center;verticalAlign=middle;resizable=0;points=[];autosize=1;strokeColor=none;fillColor=none;" vertex="1" parent="1">
          <mxGeometry x="-170" y="260" width="110" height="30" as="geometry" />
        </mxCell>
        <mxCell id="Ar_trDRfibadxC2Y5-E4-18" value="" style="shape=mxgraph.cisco.misc.token;html=1;pointerEvents=1;dashed=0;fillColor=#036897;strokeColor=#ffffff;strokeWidth=2;verticalLabelPosition=bottom;verticalAlign=top;align=center;outlineConnect=0;" vertex="1" parent="1">
          <mxGeometry x="310" y="280" width="20" height="20" as="geometry" />
        </mxCell>
        <mxCell id="Ar_trDRfibadxC2Y5-E4-35" style="edgeStyle=orthogonalEdgeStyle;rounded=0;orthogonalLoop=1;jettySize=auto;html=1;exitX=0;exitY=0.5;exitDx=0;exitDy=0;entryX=0.75;entryY=0;entryDx=0;entryDy=0;" edge="1" parent="1" source="Ar_trDRfibadxC2Y5-E4-19" target="Ar_trDRfibadxC2Y5-E4-34">
          <mxGeometry relative="1" as="geometry">
            <mxPoint x="194" y="290" as="sourcePoint" />
            <mxPoint x="105" y="393.47058823529414" as="targetPoint" />
            <Array as="points">
              <mxPoint x="140" y="290" />
              <mxPoint x="140" y="395" />
            </Array>
          </mxGeometry>
        </mxCell>
        <mxCell id="Ar_trDRfibadxC2Y5-E4-19" value="" style="ellipse;whiteSpace=wrap;html=1;aspect=fixed;fillColor=none;" vertex="1" parent="1">
          <mxGeometry x="280" y="250" width="80" height="80" as="geometry" />
        </mxCell>
        <mxCell id="Ar_trDRfibadxC2Y5-E4-20" value="inspector libre" style="text;html=1;align=center;verticalAlign=middle;resizable=0;points=[];autosize=1;strokeColor=none;fillColor=none;" vertex="1" parent="1">
          <mxGeometry x="270" y="218" width="100" height="30" as="geometry" />
        </mxCell>
        <mxCell id="Ar_trDRfibadxC2Y5-E4-26" value="iniciar inspeccion" style="text;html=1;align=center;verticalAlign=middle;resizable=0;points=[];autosize=1;strokeColor=none;fillColor=none;" vertex="1" parent="1">
          <mxGeometry x="145" y="341" width="110" height="30" as="geometry" />
        </mxCell>
        <mxCell id="Ar_trDRfibadxC2Y5-E4-49" style="edgeStyle=orthogonalEdgeStyle;rounded=0;orthogonalLoop=1;jettySize=auto;html=1;exitX=0.5;exitY=1;exitDx=0;exitDy=0;entryX=0;entryY=0.5;entryDx=0;entryDy=0;" edge="1" parent="1" source="Ar_trDRfibadxC2Y5-E4-34" target="Ar_trDRfibadxC2Y5-E4-48">
          <mxGeometry relative="1" as="geometry" />
        </mxCell>
        <mxCell id="Ar_trDRfibadxC2Y5-E4-34" value="" style="rounded=0;whiteSpace=wrap;html=1;rotation=-90;" vertex="1" parent="1">
          <mxGeometry x="135" y="420.47058823529414" width="120" height="10" as="geometry" />
        </mxCell>
        <mxCell id="Ar_trDRfibadxC2Y5-E4-38" style="edgeStyle=orthogonalEdgeStyle;rounded=0;orthogonalLoop=1;jettySize=auto;html=1;exitX=0.5;exitY=1;exitDx=0;exitDy=0;entryX=0;entryY=0.5;entryDx=0;entryDy=0;" edge="1" parent="1" source="Ar_trDRfibadxC2Y5-E4-37" target="Ar_trDRfibadxC2Y5-E4-8">
          <mxGeometry relative="1" as="geometry" />
        </mxCell>
        <mxCell id="Ar_trDRfibadxC2Y5-E4-37" value="" style="rounded=0;whiteSpace=wrap;html=1;rotation=-90;" vertex="1" parent="1">
          <mxGeometry x="-150" y="420" width="120" height="10" as="geometry" />
        </mxCell>
        <mxCell id="Ar_trDRfibadxC2Y5-E4-42" value="Esperando inspeccion 2" style="text;html=1;align=center;verticalAlign=middle;resizable=0;points=[];autosize=1;strokeColor=none;fillColor=none;" vertex="1" parent="1">
          <mxGeometry x="-20" y="360" width="150" height="30" as="geometry" />
        </mxCell>
        <mxCell id="Ar_trDRfibadxC2Y5-E4-43" value="llega el tronco 2" style="text;html=1;align=center;verticalAlign=middle;resizable=0;points=[];autosize=1;strokeColor=none;fillColor=none;" vertex="1" parent="1">
          <mxGeometry x="-150" y="330" width="110" height="30" as="geometry" />
        </mxCell>
        <mxCell id="Ar_trDRfibadxC2Y5-E4-52" style="edgeStyle=orthogonalEdgeStyle;rounded=0;orthogonalLoop=1;jettySize=auto;html=1;exitX=1;exitY=0.5;exitDx=0;exitDy=0;entryX=0.5;entryY=0;entryDx=0;entryDy=0;" edge="1" parent="1" source="Ar_trDRfibadxC2Y5-E4-48" target="Ar_trDRfibadxC2Y5-E4-51">
          <mxGeometry relative="1" as="geometry">
            <mxPoint x="486" y="425" as="targetPoint" />
            <mxPoint x="310" y="425.47" as="sourcePoint" />
          </mxGeometry>
        </mxCell>
        <mxCell id="Ar_trDRfibadxC2Y5-E4-50" value="Esperando tronco en inspeccion" style="text;html=1;align=center;verticalAlign=middle;resizable=0;points=[];autosize=1;strokeColor=none;fillColor=none;" vertex="1" parent="1">
          <mxGeometry x="249" y="360" width="190" height="30" as="geometry" />
        </mxCell>
        <mxCell id="Ar_trDRfibadxC2Y5-E4-63" style="edgeStyle=orthogonalEdgeStyle;rounded=0;orthogonalLoop=1;jettySize=auto;html=1;exitX=0.5;exitY=1;exitDx=0;exitDy=0;entryX=0.5;entryY=1;entryDx=0;entryDy=0;" edge="1" parent="1" source="Ar_trDRfibadxC2Y5-E4-51" target="Ar_trDRfibadxC2Y5-E4-61">
          <mxGeometry relative="1" as="geometry" />
        </mxCell>
        <mxCell id="Ar_trDRfibadxC2Y5-E4-51" value="" style="rounded=0;whiteSpace=wrap;html=1;rotation=-90;" vertex="1" parent="1">
          <mxGeometry x="416" y="420" width="120" height="10" as="geometry" />
        </mxCell>
        <mxCell id="Ar_trDRfibadxC2Y5-E4-59" value="Finaliza la inspeccion" style="text;html=1;align=center;verticalAlign=middle;resizable=0;points=[];autosize=1;strokeColor=none;fillColor=none;" vertex="1" parent="1">
          <mxGeometry x="406" y="330" width="140" height="30" as="geometry" />
        </mxCell>
        <mxCell id="Ar_trDRfibadxC2Y5-E4-48" value="" style="ellipse;whiteSpace=wrap;html=1;aspect=fixed;" vertex="1" parent="1">
          <mxGeometry x="296.0000000000002" y="390" width="70" height="70" as="geometry" />
        </mxCell>
        <mxCell id="Ar_trDRfibadxC2Y5-E4-64" style="edgeStyle=orthogonalEdgeStyle;rounded=0;orthogonalLoop=1;jettySize=auto;html=1;exitX=1;exitY=0.5;exitDx=0;exitDy=0;" edge="1" parent="1" source="Ar_trDRfibadxC2Y5-E4-61" target="Ar_trDRfibadxC2Y5-E4-65">
          <mxGeometry relative="1" as="geometry">
            <mxPoint x="780" y="306.66666666666663" as="targetPoint" />
          </mxGeometry>
        </mxCell>
        <mxCell id="Ar_trDRfibadxC2Y5-E4-61" value="" style="ellipse;whiteSpace=wrap;html=1;aspect=fixed;" vertex="1" parent="1">
          <mxGeometry x="610.0000000000002" y="271" width="70" height="70" as="geometry" />
        </mxCell>
        <mxCell id="Ar_trDRfibadxC2Y5-E4-62" value="esperando corte" style="text;html=1;align=center;verticalAlign=middle;resizable=0;points=[];autosize=1;strokeColor=none;fillColor=none;" vertex="1" parent="1">
          <mxGeometry x="590" y="241" width="110" height="30" as="geometry" />
        </mxCell>
        <mxCell id="Ar_trDRfibadxC2Y5-E4-68" style="edgeStyle=orthogonalEdgeStyle;rounded=0;orthogonalLoop=1;jettySize=auto;html=1;exitX=0.5;exitY=1;exitDx=0;exitDy=0;" edge="1" parent="1" source="Ar_trDRfibadxC2Y5-E4-65" target="Ar_trDRfibadxC2Y5-E4-70">
          <mxGeometry relative="1" as="geometry">
            <mxPoint x="900" y="307" as="targetPoint" />
          </mxGeometry>
        </mxCell>
        <mxCell id="Ar_trDRfibadxC2Y5-E4-65" value="" style="rounded=0;whiteSpace=wrap;html=1;rotation=-90;" vertex="1" parent="1">
          <mxGeometry x="720" y="301.66666666666663" width="120" height="10" as="geometry" />
        </mxCell>
        <mxCell id="Ar_trDRfibadxC2Y5-E4-66" value="Inciiar corte" style="text;html=1;align=center;verticalAlign=middle;resizable=0;points=[];autosize=1;strokeColor=none;fillColor=none;" vertex="1" parent="1">
          <mxGeometry x="735" y="220" width="90" height="30" as="geometry" />
        </mxCell>
        <mxCell id="Ar_trDRfibadxC2Y5-E4-67" style="edgeStyle=orthogonalEdgeStyle;rounded=0;orthogonalLoop=1;jettySize=auto;html=1;exitX=1;exitY=0.5;exitDx=0;exitDy=0;entryX=0.612;entryY=1.189;entryDx=0;entryDy=0;entryPerimeter=0;" edge="1" parent="1" source="Ar_trDRfibadxC2Y5-E4-19" target="Ar_trDRfibadxC2Y5-E4-51">
          <mxGeometry relative="1" as="geometry">
            <Array as="points">
              <mxPoint x="560" y="290" />
              <mxPoint x="560" y="412" />
            </Array>
          </mxGeometry>
        </mxCell>
        <mxCell id="Ar_trDRfibadxC2Y5-E4-72" style="edgeStyle=orthogonalEdgeStyle;rounded=0;orthogonalLoop=1;jettySize=auto;html=1;exitX=1;exitY=0.5;exitDx=0;exitDy=0;" edge="1" parent="1" source="Ar_trDRfibadxC2Y5-E4-70" target="Ar_trDRfibadxC2Y5-E4-73">
          <mxGeometry relative="1" as="geometry">
            <mxPoint x="1080" y="306.66666666666663" as="targetPoint" />
          </mxGeometry>
        </mxCell>
        <mxCell id="Ar_trDRfibadxC2Y5-E4-70" value="" style="ellipse;whiteSpace=wrap;html=1;aspect=fixed;" vertex="1" parent="1">
          <mxGeometry x="900.0000000000002" y="272" width="70" height="70" as="geometry" />
        </mxCell>
        <mxCell id="Ar_trDRfibadxC2Y5-E4-71" value="Esperando corte" style="text;html=1;align=center;verticalAlign=middle;resizable=0;points=[];autosize=1;strokeColor=none;fillColor=none;" vertex="1" parent="1">
          <mxGeometry x="880" y="241" width="110" height="30" as="geometry" />
        </mxCell>
        <mxCell id="Ar_trDRfibadxC2Y5-E4-81" style="edgeStyle=orthogonalEdgeStyle;rounded=0;orthogonalLoop=1;jettySize=auto;html=1;exitX=0.25;exitY=1;exitDx=0;exitDy=0;entryX=0.062;entryY=0.218;entryDx=0;entryDy=0;entryPerimeter=0;" edge="1" parent="1" source="Ar_trDRfibadxC2Y5-E4-73" target="Ar_trDRfibadxC2Y5-E4-86">
          <mxGeometry relative="1" as="geometry">
            <mxPoint x="1190" y="336.38461538461536" as="targetPoint" />
          </mxGeometry>
        </mxCell>
        <mxCell id="Ar_trDRfibadxC2Y5-E4-73" value="" style="rounded=0;whiteSpace=wrap;html=1;rotation=-90;" vertex="1" parent="1">
          <mxGeometry x="1010" y="301.9966666666666" width="120" height="10" as="geometry" />
        </mxCell>
        <mxCell id="Ar_trDRfibadxC2Y5-E4-74" value="Finalizar corte" style="text;html=1;align=center;verticalAlign=middle;resizable=0;points=[];autosize=1;strokeColor=none;fillColor=none;" vertex="1" parent="1">
          <mxGeometry x="1030" y="218" width="100" height="30" as="geometry" />
        </mxCell>
        <mxCell id="Ar_trDRfibadxC2Y5-E4-75" value="" style="shape=mxgraph.cisco.misc.token;html=1;pointerEvents=1;dashed=0;fillColor=#036897;strokeColor=#ffffff;strokeWidth=2;verticalLabelPosition=bottom;verticalAlign=top;align=center;outlineConnect=0;" vertex="1" parent="1">
          <mxGeometry x="925" y="140" width="20" height="20" as="geometry" />
        </mxCell>
        <mxCell id="Ar_trDRfibadxC2Y5-E4-78" style="edgeStyle=orthogonalEdgeStyle;rounded=0;orthogonalLoop=1;jettySize=auto;html=1;exitX=0;exitY=0.5;exitDx=0;exitDy=0;entryX=0.75;entryY=0;entryDx=0;entryDy=0;" edge="1" parent="1" source="Ar_trDRfibadxC2Y5-E4-76" target="Ar_trDRfibadxC2Y5-E4-65">
          <mxGeometry relative="1" as="geometry">
            <Array as="points">
              <mxPoint x="730" y="150" />
              <mxPoint x="730" y="277" />
            </Array>
          </mxGeometry>
        </mxCell>
        <mxCell id="Ar_trDRfibadxC2Y5-E4-76" value="" style="ellipse;whiteSpace=wrap;html=1;aspect=fixed;fillColor=none;" vertex="1" parent="1">
          <mxGeometry x="895" y="110" width="80" height="80" as="geometry" />
        </mxCell>
        <mxCell id="Ar_trDRfibadxC2Y5-E4-77" value="Maquina de corte libre" style="text;html=1;align=center;verticalAlign=middle;resizable=0;points=[];autosize=1;strokeColor=none;fillColor=none;" vertex="1" parent="1">
          <mxGeometry x="865" y="70" width="140" height="30" as="geometry" />
        </mxCell>
        <mxCell id="Ar_trDRfibadxC2Y5-E4-80" style="edgeStyle=orthogonalEdgeStyle;rounded=0;orthogonalLoop=1;jettySize=auto;html=1;exitX=1;exitY=0.5;exitDx=0;exitDy=0;entryX=1;entryY=1;entryDx=0;entryDy=0;" edge="1" parent="1" source="Ar_trDRfibadxC2Y5-E4-76" target="Ar_trDRfibadxC2Y5-E4-73">
          <mxGeometry relative="1" as="geometry">
            <mxPoint x="1130" y="250" as="targetPoint" />
            <Array as="points">
              <mxPoint x="1130" y="150" />
              <mxPoint x="1130" y="247" />
            </Array>
          </mxGeometry>
        </mxCell>
        <mxCell id="Ar_trDRfibadxC2Y5-E4-83" style="edgeStyle=orthogonalEdgeStyle;rounded=0;orthogonalLoop=1;jettySize=auto;html=1;exitX=0.186;exitY=1.03;exitDx=0;exitDy=0;exitPerimeter=0;entryX=0.044;entryY=0.338;entryDx=0;entryDy=0;entryPerimeter=0;" edge="1" parent="1" source="Ar_trDRfibadxC2Y5-E4-73" target="Ar_trDRfibadxC2Y5-E4-86">
          <mxGeometry relative="1" as="geometry">
            <mxPoint x="1190" y="344" as="targetPoint" />
            <mxPoint x="1080" y="345.05" as="sourcePoint" />
          </mxGeometry>
        </mxCell>
        <mxCell id="Ar_trDRfibadxC2Y5-E4-84" style="edgeStyle=orthogonalEdgeStyle;rounded=0;orthogonalLoop=1;jettySize=auto;html=1;exitX=0.104;exitY=1.03;exitDx=0;exitDy=0;exitPerimeter=0;entryX=0.044;entryY=0.504;entryDx=0;entryDy=0;entryPerimeter=0;" edge="1" parent="1" source="Ar_trDRfibadxC2Y5-E4-73" target="Ar_trDRfibadxC2Y5-E4-86">
          <mxGeometry relative="1" as="geometry">
            <mxPoint x="1190" y="356" as="targetPoint" />
            <mxPoint x="1095" y="357" as="sourcePoint" />
          </mxGeometry>
        </mxCell>
        <mxCell id="Ar_trDRfibadxC2Y5-E4-85" style="edgeStyle=orthogonalEdgeStyle;rounded=0;orthogonalLoop=1;jettySize=auto;html=1;exitX=0.019;exitY=1.03;exitDx=0;exitDy=0;exitPerimeter=0;entryX=0.037;entryY=0.635;entryDx=0;entryDy=0;entryPerimeter=0;" edge="1" parent="1" source="Ar_trDRfibadxC2Y5-E4-73" target="Ar_trDRfibadxC2Y5-E4-86">
          <mxGeometry relative="1" as="geometry">
            <mxPoint x="1190" y="365" as="targetPoint" />
            <mxPoint x="1105" y="367" as="sourcePoint" />
            <Array as="points">
              <mxPoint x="1150" y="365" />
              <mxPoint x="1150" y="366" />
              <mxPoint x="1180" y="366" />
              <mxPoint x="1180" y="365" />
            </Array>
          </mxGeometry>
        </mxCell>
        <mxCell id="Ar_trDRfibadxC2Y5-E4-98" style="edgeStyle=orthogonalEdgeStyle;rounded=0;orthogonalLoop=1;jettySize=auto;html=1;exitX=1;exitY=0.5;exitDx=0;exitDy=0;" edge="1" parent="1" source="Ar_trDRfibadxC2Y5-E4-86" target="Ar_trDRfibadxC2Y5-E4-99">
          <mxGeometry relative="1" as="geometry">
            <mxPoint x="1469.9999999999995" y="355.8461538461538" as="targetPoint" />
          </mxGeometry>
        </mxCell>
        <mxCell id="Ar_trDRfibadxC2Y5-E4-86" value="" style="ellipse;whiteSpace=wrap;html=1;aspect=fixed;" vertex="1" parent="1">
          <mxGeometry x="1320.0000000000002" y="321" width="70" height="70" as="geometry" />
        </mxCell>
        <mxCell id="Ar_trDRfibadxC2Y5-E4-87" value="Esperando cepillado" style="text;html=1;align=center;verticalAlign=middle;resizable=0;points=[];autosize=1;strokeColor=none;fillColor=none;" vertex="1" parent="1">
          <mxGeometry x="1320" y="290" width="130" height="30" as="geometry" />
        </mxCell>
        <mxCell id="Ar_trDRfibadxC2Y5-E4-88" style="edgeStyle=orthogonalEdgeStyle;rounded=0;orthogonalLoop=1;jettySize=auto;html=1;exitX=0.25;exitY=1;exitDx=0;exitDy=0;entryX=0.062;entryY=0.218;entryDx=0;entryDy=0;entryPerimeter=0;" edge="1" parent="1" target="Ar_trDRfibadxC2Y5-E4-92">
          <mxGeometry relative="1" as="geometry">
            <mxPoint x="1190" y="258.38461538461536" as="targetPoint" />
            <mxPoint x="1075" y="259" as="sourcePoint" />
          </mxGeometry>
        </mxCell>
        <mxCell id="Ar_trDRfibadxC2Y5-E4-89" style="edgeStyle=orthogonalEdgeStyle;rounded=0;orthogonalLoop=1;jettySize=auto;html=1;exitX=0.186;exitY=1.03;exitDx=0;exitDy=0;exitPerimeter=0;entryX=0.044;entryY=0.338;entryDx=0;entryDy=0;entryPerimeter=0;" edge="1" parent="1" target="Ar_trDRfibadxC2Y5-E4-92">
          <mxGeometry relative="1" as="geometry">
            <mxPoint x="1190" y="266" as="targetPoint" />
            <mxPoint x="1075" y="267" as="sourcePoint" />
          </mxGeometry>
        </mxCell>
        <mxCell id="Ar_trDRfibadxC2Y5-E4-90" style="edgeStyle=orthogonalEdgeStyle;rounded=0;orthogonalLoop=1;jettySize=auto;html=1;exitX=0.104;exitY=1.03;exitDx=0;exitDy=0;exitPerimeter=0;entryX=0.044;entryY=0.504;entryDx=0;entryDy=0;entryPerimeter=0;" edge="1" parent="1" target="Ar_trDRfibadxC2Y5-E4-92">
          <mxGeometry relative="1" as="geometry">
            <mxPoint x="1190" y="278" as="targetPoint" />
            <mxPoint x="1075" y="277" as="sourcePoint" />
          </mxGeometry>
        </mxCell>
        <mxCell id="Ar_trDRfibadxC2Y5-E4-91" style="edgeStyle=orthogonalEdgeStyle;rounded=0;orthogonalLoop=1;jettySize=auto;html=1;exitX=0.019;exitY=1.03;exitDx=0;exitDy=0;exitPerimeter=0;entryX=0.037;entryY=0.635;entryDx=0;entryDy=0;entryPerimeter=0;" edge="1" parent="1" target="Ar_trDRfibadxC2Y5-E4-92">
          <mxGeometry relative="1" as="geometry">
            <mxPoint x="1190" y="287" as="targetPoint" />
            <mxPoint x="1075" y="287" as="sourcePoint" />
            <Array as="points">
              <mxPoint x="1150" y="287" />
              <mxPoint x="1150" y="288" />
              <mxPoint x="1180" y="288" />
              <mxPoint x="1180" y="287" />
            </Array>
          </mxGeometry>
        </mxCell>
        <mxCell id="Ar_trDRfibadxC2Y5-E4-94" style="edgeStyle=orthogonalEdgeStyle;rounded=0;orthogonalLoop=1;jettySize=auto;html=1;exitX=0.5;exitY=0;exitDx=0;exitDy=0;" edge="1" parent="1" source="Ar_trDRfibadxC2Y5-E4-92" target="Ar_trDRfibadxC2Y5-E4-95">
          <mxGeometry relative="1" as="geometry">
            <mxPoint x="1275.0769230769229" y="160" as="targetPoint" />
          </mxGeometry>
        </mxCell>
        <mxCell id="Ar_trDRfibadxC2Y5-E4-92" value="" style="ellipse;whiteSpace=wrap;html=1;aspect=fixed;" vertex="1" parent="1">
          <mxGeometry x="1240.0000000000002" y="242" width="70" height="70" as="geometry" />
        </mxCell>
        <mxCell id="Ar_trDRfibadxC2Y5-E4-93" value="Esperando desecho" style="text;html=1;align=center;verticalAlign=middle;resizable=0;points=[];autosize=1;strokeColor=none;fillColor=none;" vertex="1" parent="1">
          <mxGeometry x="1310" y="262" width="130" height="30" as="geometry" />
        </mxCell>
        <mxCell id="Ar_trDRfibadxC2Y5-E4-95" value="" style="rounded=0;whiteSpace=wrap;html=1;rotation=-180;" vertex="1" parent="1">
          <mxGeometry x="1215.0769230769229" y="155" width="120" height="10" as="geometry" />
        </mxCell>
        <mxCell id="Ar_trDRfibadxC2Y5-E4-96" value="se deshecha" style="text;html=1;align=center;verticalAlign=middle;resizable=0;points=[];autosize=1;strokeColor=none;fillColor=none;" vertex="1" parent="1">
          <mxGeometry x="1225" y="108" width="90" height="30" as="geometry" />
        </mxCell>
        <mxCell id="Ar_trDRfibadxC2Y5-E4-100" style="edgeStyle=orthogonalEdgeStyle;rounded=0;orthogonalLoop=1;jettySize=auto;html=1;exitX=0.5;exitY=1;exitDx=0;exitDy=0;entryX=0;entryY=0.5;entryDx=0;entryDy=0;" edge="1" parent="1" source="Ar_trDRfibadxC2Y5-E4-99" target="Ar_trDRfibadxC2Y5-E4-101">
          <mxGeometry relative="1" as="geometry">
            <mxPoint x="1569.9999999999995" y="355.8461538461538" as="targetPoint" />
          </mxGeometry>
        </mxCell>
        <mxCell id="Ar_trDRfibadxC2Y5-E4-99" value="" style="rounded=0;whiteSpace=wrap;html=1;rotation=-90;" vertex="1" parent="1">
          <mxGeometry x="1409.9999999999995" y="350.8461538461538" width="120" height="10" as="geometry" />
        </mxCell>
        <mxCell id="Ar_trDRfibadxC2Y5-E4-103" style="edgeStyle=orthogonalEdgeStyle;rounded=0;orthogonalLoop=1;jettySize=auto;html=1;exitX=1;exitY=0.5;exitDx=0;exitDy=0;" edge="1" parent="1" source="Ar_trDRfibadxC2Y5-E4-101" target="Ar_trDRfibadxC2Y5-E4-104">
          <mxGeometry relative="1" as="geometry">
            <mxPoint x="1729.9999999999995" y="355.8461538461538" as="targetPoint" />
          </mxGeometry>
        </mxCell>
        <mxCell id="Ar_trDRfibadxC2Y5-E4-101" value="" style="ellipse;whiteSpace=wrap;html=1;aspect=fixed;" vertex="1" parent="1">
          <mxGeometry x="1584.0000000000002" y="321" width="70" height="70" as="geometry" />
        </mxCell>
        <mxCell id="Ar_trDRfibadxC2Y5-E4-102" value="esperando cepillado" style="text;html=1;align=center;verticalAlign=middle;resizable=0;points=[];autosize=1;strokeColor=none;fillColor=none;" vertex="1" parent="1">
          <mxGeometry x="1554" y="291" width="130" height="30" as="geometry" />
        </mxCell>
        <mxCell id="Ar_trDRfibadxC2Y5-E4-104" value="" style="rounded=0;whiteSpace=wrap;html=1;rotation=-90;" vertex="1" parent="1">
          <mxGeometry x="1669.9999999999995" y="350.8461538461538" width="120" height="10" as="geometry" />
        </mxCell>
        <mxCell id="Ar_trDRfibadxC2Y5-E4-106" value="Inicio cepillado" style="text;html=1;align=center;verticalAlign=middle;resizable=0;points=[];autosize=1;strokeColor=none;fillColor=none;" vertex="1" parent="1">
          <mxGeometry x="1410" y="428" width="100" height="30" as="geometry" />
        </mxCell>
        <mxCell id="Ar_trDRfibadxC2Y5-E4-107" value="Finalizar cepillado" style="text;html=1;align=center;verticalAlign=middle;resizable=0;points=[];autosize=1;strokeColor=none;fillColor=none;" vertex="1" parent="1">
          <mxGeometry x="1684" y="430.47" width="120" height="30" as="geometry" />
        </mxCell>
        <mxCell id="Ar_trDRfibadxC2Y5-E4-108" value="" style="shape=mxgraph.cisco.misc.token;html=1;pointerEvents=1;dashed=0;fillColor=#036897;strokeColor=#ffffff;strokeWidth=2;verticalLabelPosition=bottom;verticalAlign=top;align=center;outlineConnect=0;" vertex="1" parent="1">
          <mxGeometry x="1614" y="535" width="20" height="20" as="geometry" />
        </mxCell>
        <mxCell id="Ar_trDRfibadxC2Y5-E4-111" style="edgeStyle=orthogonalEdgeStyle;rounded=0;orthogonalLoop=1;jettySize=auto;html=1;exitX=0;exitY=0.5;exitDx=0;exitDy=0;entryX=0.25;entryY=0;entryDx=0;entryDy=0;" edge="1" parent="1" source="Ar_trDRfibadxC2Y5-E4-109" target="Ar_trDRfibadxC2Y5-E4-99">
          <mxGeometry relative="1" as="geometry">
            <Array as="points">
              <mxPoint x="1380" y="545" />
              <mxPoint x="1380" y="386" />
            </Array>
          </mxGeometry>
        </mxCell>
        <mxCell id="Ar_trDRfibadxC2Y5-E4-109" value="" style="ellipse;whiteSpace=wrap;html=1;aspect=fixed;fillColor=none;" vertex="1" parent="1">
          <mxGeometry x="1584" y="505" width="80" height="80" as="geometry" />
        </mxCell>
        <mxCell id="Ar_trDRfibadxC2Y5-E4-110" value="maquina de cepillaod libre&lt;div&gt;&lt;br&gt;&lt;/div&gt;" style="text;html=1;align=center;verticalAlign=middle;resizable=0;points=[];autosize=1;strokeColor=none;fillColor=none;" vertex="1" parent="1">
          <mxGeometry x="1540" y="593" width="160" height="40" as="geometry" />
        </mxCell>
        <mxCell id="Ar_trDRfibadxC2Y5-E4-112" style="edgeStyle=orthogonalEdgeStyle;rounded=0;orthogonalLoop=1;jettySize=auto;html=1;exitX=1;exitY=0.5;exitDx=0;exitDy=0;entryX=0.382;entryY=1.5;entryDx=0;entryDy=0;entryPerimeter=0;" edge="1" parent="1" source="Ar_trDRfibadxC2Y5-E4-109" target="Ar_trDRfibadxC2Y5-E4-104">
          <mxGeometry relative="1" as="geometry">
            <Array as="points">
              <mxPoint x="1870" y="545" />
              <mxPoint x="1870" y="370" />
            </Array>
          </mxGeometry>
        </mxCell>
      </root>
    </mxGraphModel>
  </diagram>
</mxfile>
